<svg xmlns="http://www.w3.org/2000/svg" version="1.1" xmlns:xlink="http://www.w3.org/1999/xlink" width="1500" height="1500" viewBox="0 0 1500 1500"><rect width="1500" height="1500" x="0" y="0" id="background" stroke="transparent" fill="#287ab3"></rect><svg xml:space="preserve" width="1000" height="1000" data-version="2" data-id="lg_kJwmdLvw6MlAN6jRMk" viewBox="0 0 643 190" x="250" y="250"><rect width="100%" height="100%" fill="transparent"></rect><path fill="#fff" d="M127.8 84.667q0-9.82-10.59-15.78-2.1-1.1-12.91-5.85-9.82-4.19-12.36-8.61-1.33-2.42-1.33-5.18 0-7.4 7.18-10.27 3.09-1.21 6.84-1.21 9.27 0 14.12 6.29 3.2 4.3 3.09 10.48h3.31v-19.31q-2.64 0-3.09 1.66-.22.77-.22 2.09-7.83-4.3-17.65-4.3-11.92 0-18.54 6.62-4.42 4.64-4.42 10.82 0 9.27 10.38 15.11 1.87 1 12.58 5.63 9.93 4.42 12.58 8.94 1.43 2.54 1.43 5.52 0 7.72-7.5 11.14-3.53 1.55-7.84 1.55-16.88-.22-18.76-20.64h-3.31v22.85q2.65 0 3.09-1.55.22-.88.22-3.2 8.5 5.63 19.32 5.63 12.69 0 19.64-6.84 4.74-4.86 4.74-11.59"></path><rect width="47.01" height="68.42" x="-23.5" y="-34.21" fill="none" rx="0" ry="0" transform="translate(104.8 69.39)"></rect><path fill="#fff" d="M200.97 101.997q0-2.43-1.77-2.76-.55-.11-1.1-.11h-3.75l-25.28-63.35h-4.08l-24.72 63.35h-6.95v2.87h19.64q0-2.43-1.76-2.76-.55-.11-1.11-.11h-5.4l8.27-21.41h23.07l8.27 21.41h-7.17v2.87Zm-26.16-27.48h-20.63l10.26-26.71Z"></path><rect width="67.65" height="66.22" x="-33.83" y="-33.11" fill="none" rx="0" ry="0" transform="translate(167.65 69.39)"></rect><path fill="#fff" d="M232.42 101.997v-2.87h-8.72v-27.48h10.48l17.66 30.35h16.66q0-2.43-1.32-2.76-.55-.11-1.33-.11h-4.19l-17.77-28.47q10.49-2.54 14.35-10.93 1.43-3.31 1.43-6.73 0-8.28-7.17-13.24-5.85-3.98-14.46-3.98h-32.66v2.87h8.83v60.48h-8.83v2.87Zm2.31-63.35q9.49 0 13.14 7.73 1.43 3.2 1.43 6.73 0 7.94-5.52 12.36-3.75 2.98-8.72 2.98H223.7v-29.8Z"></path><rect width="63.12" height="66.22" x="-31.56" y="-33.11" fill="none" rx="0" ry="0" transform="translate(237.44 69.39)"></rect><path fill="#fff" d="M269.6 38.647h8.83v38.52q.22 25.82 25.71 25.93 19.43 0 23.51-15.89 1.21-4.86 1.21-11.04v-37.52h8.83v-2.87h-21.52v2.87H325v38.18q0 21.41-15.89 23.07-1.32.11-2.65.11-13.46 0-16.99-11.37-1.55-4.96-1.55-12.14v-37.85h8.72v-2.87H269.6Z"></path><rect width="68.09" height="67.32" x="-34.05" y="-33.66" fill="none" rx="0" ry="0" transform="translate(304.14 69.94)"></rect><path fill="#fff" d="M424.43 35.777h-17.66l-23.83 53.97-25.61-53.97h-15.78v2.87h8.83v60.48h-8.83v2.87h22.07q0-2.43-1.76-2.76-.55-.11-1.1-.11h-5.96v-47.46l24.16 50.88h2.32l25.49-56.83v53.41h-8.83v2.87h26.49q0-2.43-1.77-2.76-.55-.11-1.1-.11h-5.96v-60.48h8.83Z"></path><rect width="82.88" height="66.77" x="-41.44" y="-33.38" fill="none" rx="0" ry="0" transform="translate(383.49 69.66)"></rect><path fill="#fff" d="M495.38 101.997q0-2.43-1.76-2.76-.55-.11-1.11-.11h-3.75l-25.27-63.35h-4.08l-24.72 63.35h-6.95v2.87h19.64q0-2.43-1.76-2.76-.56-.11-1.11-.11h-5.41l8.28-21.41h23.06l8.28 21.41h-7.17v2.87Zm-26.15-27.48H448.6l10.26-26.71Z"></path><rect width="67.64" height="66.22" x="-33.82" y="-33.11" fill="none" rx="0" ry="0" transform="translate(462.06 69.39)"></rect><path fill="#fff" d="M545.48 38.647h9.38v49.44l-41.93-52.31h-15.34v2.87h8.83v60.48h-8.83v2.87h22.62q0-2.43-1.76-2.76-.55-.11-1.11-.11h-6.51v-51.1l43.37 54.52 5.08-1.11v-62.79h8.83v-2.87h-22.63Z"></path><rect width="70.52" height="66.77" x="-35.26" y="-33.38" fill="none" rx="0" ry="0" transform="translate(533.35 69.66)"></rect><path fill="#fff" d="m213.63 171.197 7.24-20.36h1.76v-.91h-5.9v.91h2.81l-5.87 16.6-6.37-16.6h2.82v-.91h-7.95v.91h2.11l6.68 17.76q.77 2.07 1.34 2.39.35.21.91.21Z"></path><rect width="20.46" height="21.27" x="-10.23" y="-10.63" fill="none" rx="0" ry="0" transform="translate(212.9 161.06)"></rect><path fill="#fff" d="M231.39 156.607q2.46 0 3.27 2.07.28.67.28 1.44 0 1.76-1.69 2.15-.88.17-2.5.14l-3.72-.11q.17-4.04 2.63-5.27.81-.42 1.73-.42m6.11 11.04-.88-.32q-1.23 2.67-3.97 3.02-.35.04-.67.04-3.69 0-4.64-4.4-.28-1.23-.31-2.7l4.21.07q4.29.07 5.52-.81.95-.7.95-2.01 0-2.39-2.42-3.79-1.72-1.02-3.97-1.02-4.4 0-6.3 3.65-.98 1.9-.98 4.29 0 4.36 3.13 6.47 1.86 1.23 4.25 1.23 3.8 0 5.59-2.74.28-.49.49-.98"></path><rect width="13.67" height="15.64" x="-6.83" y="-7.82" fill="none" rx="0" ry="0" transform="translate(231.38 164.05)"></rect><path fill="#fff" d="M243.51 161.277q.07-4.64 3.52-4.67 3.45.07 3.48 4.67-.07 4.78-3.48 4.82-3.48-.07-3.52-4.82m3.56-5.55q-3.17 0-5.03 2.04-1.34 1.51-1.34 3.55 0 2.67 2.6 4.43.25.17.5.31-2.25 0-2.82 1.94-.1.45-.1.91.03 1.87 1.51 2.78-1.16 1.23-1.16 2.5 0 1.93 2.28 2.88 1.45.63 3.56.63 5.34 0 7.06-2.6.56-.88.56-1.86 0-3.03-3.48-3.48-.45-.07-.95-.07l-6.39-.15q-1.62-.1-1.66-1.4 0-.92 1.16-1.16.25-.04.53-.04l3.09.04q3.13 0 5-2.11 1.33-1.51 1.33-3.59-.03-2.63-2.04-4.22.32-1.12 1.2-1.33.14-.04.28-.04.49 0 1.06.53.38.35.7.35.88-.21 1.02-1.12 0-1.09-1.02-1.48-.39-.14-.78-.14-1.65 0-2.67 1.48-.38.56-.59 1.23-1.59-.81-3.41-.81m0 21.06q-3.49 0-4.4-1.83-.25-.49-.25-.99.04-.94.85-1.89.7.14 1.16.14l5.41.07q2.64.03 3.06 1.19.11.28.11.71 0 1.54-2.89 2.25-1.4.35-3.05.35"></path><rect width="14.84" height="23.87" x="-7.42" y="-11.94" fill="none" rx="0" ry="0" transform="translate(248.62 166.26)"></rect><path fill="#fff" d="M264.61 156.607q2.46 0 3.27 2.07.28.67.28 1.44 0 1.76-1.69 2.15-.88.17-2.49.14l-3.73-.11q.17-4.04 2.64-5.27.8-.42 1.72-.42m6.12 11.04-.88-.32q-1.23 2.67-3.98 3.02-.35.04-.66.04-3.7 0-4.64-4.4-.29-1.23-.32-2.7l4.22.07q4.29.07 5.52-.81.95-.7.95-2.01 0-2.39-2.43-3.79-1.72-1.02-3.97-1.02-4.4 0-6.3 3.65-.98 1.9-.98 4.29 0 4.36 3.13 6.47 1.86 1.23 4.25 1.23 3.8 0 5.59-2.74.28-.49.5-.98"></path><rect width="13.68" height="15.64" x="-6.84" y="-7.82" fill="none" rx="0" ry="0" transform="translate(264.6 164.05)"></rect><path fill="#fff" d="M272.87 156.957h2.46v9.91q.25 4.4 4.04 4.54 3.24 0 4.05-3.97v-.07l-.95-.18q-.88 2.92-2.57 3.16-1.9-.07-1.93-2.7v-10.69h5.45v-.88h-5.45v-4.08l-2.64.74v3.34h-2.46Z"></path><rect width="10.55" height="19.41" x="-5.28" y="-9.71" fill="none" rx="0" ry="0" transform="translate(278.64 162.2)"></rect><path fill="#fff" d="M297.34 171.367q2.71 0 2.99-3.27.03-.21.03-.38l-.91-.04q-.25 2.57-1.37 2.6-.92-.07-.95-1.83v-7.41q0-5.03-5.03-5.31h-.63q-3.94 0-5.28 1.83-.42.59-.42 1.19 0 1.09 1.02 1.27.18.03.35.03.81 0 1.2-1.02.49-1.3.67-1.54.66-.88 2.07-.88 3.31.21 3.41 3.62v2.21q-8.26 0-9.46 3.45-.21.67-.21 1.44 0 2.67 2.36 3.66.95.38 2 .38 2.57 0 4.33-1.75.63-.67.95-1.41.42 3.13 2.88 3.16m-7-1.4q-2.14 0-2.63-2.15-.11-.49-.11-1.09 0-2.35 2.71-2.99 1.44-.31 4.18-.35v2.81q-.53 2.43-2.57 3.42-.8.35-1.58.35"></path><rect width="15.54" height="15.64" x="-7.77" y="-7.82" fill="none" rx="0" ry="0" transform="translate(293.09 164.05)"></rect><path fill="#fff" d="M309.47 170.137h-2.53v-6.99q0-3.2 1.97-5.14.77-.73 1.3-.77.59 0 1.09.88.56.98 1.05 1.12.21.07.42.07 1.06 0 1.34-1.02.07-.21.07-.42 0-1.58-1.62-1.93-.35-.07-.67-.07-2.11 0-3.76 1.79-.77.85-1.23 1.9l-.14-3.48h-5.1v.88h2.64v11.07q0 1.62-.91 1.94-.53.17-1.73.17v.88h8.69q0-.77-.53-.84-.14-.04-.35-.04"></path><rect width="12.52" height="15.15" x="-6.26" y="-7.58" fill="none" rx="0" ry="0" transform="translate(308.42 163.94)"></rect><path fill="#fff" d="M322.62 170.137h-1.76v-14.06h-5.45v.88h2.81v11.07q0 1.62-1.09 1.97-.53.14-1.72.14v.88h8.08q0-.77-.52-.84-.18-.04-.35-.04m-1.34-19.19q0-1.23-1.09-1.76-.42-.18-.81-.18-1.23 0-1.76 1.13-.17.39-.17.81 0 1.3 1.16 1.79.38.14.77.14 1.23 0 1.72-1.12.18-.39.18-.81"></path><rect width="8.08" height="22.01" x="-4.04" y="-11.01" fill="none" rx="0" ry="0" transform="translate(319.95 160.51)"></rect><path fill="#fff" d="M338.3 171.367q2.7 0 2.98-3.27.04-.21.04-.38l-.91-.04q-.25 2.57-1.38 2.6-.91-.07-.95-1.83v-7.41q0-5.03-5.02-5.31h-.64q-3.93 0-5.27 1.83-.42.59-.42 1.19 0 1.09 1.02 1.27.17.03.35.03.81 0 1.2-1.02.49-1.3.66-1.54.67-.88 2.08-.88 3.3.21 3.41 3.62v2.21q-8.26 0-9.46 3.45-.21.67-.21 1.44 0 2.67 2.36 3.66.94.38 2 .38 2.57 0 4.32-1.75.64-.67.95-1.41.42 3.13 2.89 3.16m-7-1.4q-2.14 0-2.64-2.15-.1-.49-.1-1.09 0-2.35 2.7-2.99 1.45-.31 4.19-.35v2.81q-.53 2.43-2.57 3.42-.81.35-1.58.35"></path><rect width="15.54" height="15.64" x="-7.77" y="-7.82" fill="none" rx="0" ry="0" transform="translate(334.05 164.05)"></rect><path fill="#fff" d="M349.41 170.137h-1.59v-7.59q.11-3.27 2.32-4.71.95-.6 1.94-.6 2.14 0 2.91 2 .32.81.32 1.83v6.96q0 1.62-.91 1.94-.53.17-1.73.17v.88h7.91q0-.77-.52-.84-.14-.04-.35-.04h-1.76v-8.72q0-3.51-2.43-5.02-1.12-.67-2.42-.67-2.61 0-4.29 2.07-.64.81-1.02 1.8l-.14-3.52h-5.1v.88h2.64v11.07q0 1.62-.92 1.94-.53.17-1.72.17v.88h7.73q0-.77-.52-.84-.14-.04-.35-.04"></path><rect width="18.03" height="15.29" x="-9.02" y="-7.64" fill="none" rx="0" ry="0" transform="translate(352.06 163.87)"></rect><path fill="#fff" d="M379.78 171.017v-.91h-4.22v-9.46h7.24v-1.02h-7.24v-8.79h5.63q2.53 0 3.62 3.41.07.21.1.35l.5 1.66h.7l-.18-6.33h-16.2v.91h2.81v19.27h-2.81v.91Z"></path><rect width="16.38" height="21.09" x="-8.19" y="-10.54" fill="none" rx="0" ry="0" transform="translate(378.42 160.97)"></rect><path fill="#fff" d="M390.85 163.527q0-5.45 2.99-6.64.78-.28 1.62-.28 3.9 0 4.53 4.92.11.84.11 1.86 0 5.91-3.23 6.93-.64.17-1.3.17-3.56 0-4.47-4.21-.25-1.24-.25-2.75m4.72-7.8q-3.38 0-5.63 2.32-2.07 2.14-2.07 5.34 0 4.43 3.23 6.65 1.97 1.33 4.36 1.33 3.37 0 5.59-2.39 2.04-2.18 2.04-5.45 0-4.43-3.27-6.57-1.93-1.23-4.25-1.23"></path><rect width="15.22" height="15.64" x="-7.61" y="-7.82" fill="none" rx="0" ry="0" transform="translate(395.98 164.05)"></rect><path fill="#fff" d="M408.89 163.527q0-5.45 2.99-6.64.77-.28 1.61-.28 3.91 0 4.54 4.92.11.84.11 1.86 0 5.91-3.24 6.93-.63.17-1.3.17-3.55 0-4.46-4.21-.25-1.24-.25-2.75m4.71-7.8q-3.37 0-5.62 2.32-2.08 2.14-2.08 5.34 0 4.43 3.24 6.65 1.96 1.33 4.35 1.33 3.38 0 5.59-2.39 2.04-2.18 2.04-5.45 0-4.43-3.27-6.57-1.93-1.23-4.25-1.23"></path><rect width="15.22" height="15.64" x="-7.61" y="-7.82" fill="none" rx="0" ry="0" transform="translate(414.01 164.05)"></rect><path fill="#fff" d="M435.92 171.017h5.03q0-.77-.53-.84-.14-.04-.35-.04h-1.75l-.08-21.97h-5.97v.88h3.34v8.58q-1.72-1.9-4.64-1.9-3.87 0-5.84 3.44-1.19 2.11-1.19 4.75 0 4.36 2.74 6.36 1.55 1.09 3.41 1.09 3.83-.07 5.55-4.08Zm-9-7.52q0-4.96 2.68-6.44.84-.45 1.86-.45 2.57 0 3.66 2.74.59 1.48.59 3.48 0 4.22-2.11 6.12-1.12 1.02-2.56 1.02-2.88 0-3.76-3.52-.36-1.3-.36-2.95"></path><rect width="17.01" height="23.2" x="-8.51" y="-11.6" fill="none" rx="0" ry="0" transform="translate(432.94 160.27)"></rect><path fill="#fff" d="M6.436 2.15v185.701h152.47v-5.3H11.736V7.45h619.528v175.101h-147.17v5.3h152.47V2.15z"></path></svg></svg>