<?xml version="1.0" standalone="no"?>
<!DOCTYPE svg PUBLIC "-//W3C//DTD SVG 20010904//EN"
 "http://www.w3.org/TR/2001/REC-SVG-20010904/DTD/svg10.dtd">
<svg version="1.0" xmlns="http://www.w3.org/2000/svg"
 width="1481.000000pt" height="385.000000pt" viewBox="0 0 1481.000000 385.000000"
 preserveAspectRatio="xMidYMid meet">

<g transform="translate(0.000000,385.000000) scale(0.100000,-0.100000)"
fill="#000000" stroke="none">
<path d="M2555 3740 c-3 -8 -165 -400 -359 -870 l-352 -855 -70 3 c-56 3 -74
0 -87 -13 -38 -38 -5 -90 63 -101 22 -4 40 -12 40 -18 0 -6 -17 -40 -37 -76
-74 -135 -76 -140 -65 -164 14 -32 57 -41 89 -21 24 16 34 36 100 190 l29 70
385 3 385 2 61 -130 61 -130 371 0 c204 0 371 2 371 3 0 2 -220 480 -490 1062
-277 601 -492 1053 -495 1045z m-101 -1366 c97 -209 176 -384 176 -389 0 -10
-646 1 -664 12 -9 6 25 101 143 391 85 210 158 379 162 375 4 -5 86 -179 183
-389z"/>
<path d="M8506 2882 c-264 -795 -346 -1024 -396 -1107 -10 -16 -23 -49 -30
-73 -15 -57 5 -92 51 -92 45 0 73 38 99 132 13 46 37 117 53 158 16 41 76 217
131 390 56 173 106 314 111 313 7 -1 487 -845 563 -991 l18 -32 164 342 c90
189 215 449 278 578 l114 235 105 -320 c58 -176 139 -425 180 -552 l76 -233
384 0 c322 0 384 2 380 14 -3 7 -165 474 -361 1037 -195 563 -359 1035 -364
1049 -8 22 -45 -47 -316 -589 -169 -337 -311 -610 -316 -605 -4 5 -146 277
-315 604 -169 327 -311 598 -314 602 -3 4 -136 -383 -295 -860z"/>
<path d="M13070 2793 c0 -635 -4 -988 -11 -1048 l-11 -89 27 -23 c32 -28 46
-29 76 -4 l23 19 -3 567 c-2 395 0 566 8 564 5 -2 357 -276 781 -609 424 -333
775 -606 781 -608 5 -2 9 388 9 1041 0 999 -1 1045 -18 1060 -22 20 -77 22
-89 5 -4 -7 -6 -269 -4 -582 2 -398 0 -567 -8 -565 -5 2 -351 274 -767 604
-416 330 -765 606 -775 613 -19 13 -19 -12 -19 -945z"/>
<path d="M11378 2878 l-355 -863 -70 3 c-55 3 -73 0 -86 -13 -40 -40 -8 -90
66 -102 20 -3 37 -10 37 -15 0 -12 -36 -83 -77 -150 -27 -43 -34 -64 -29 -83
9 -36 46 -51 82 -34 31 15 49 46 104 182 l35 87 386 0 386 0 59 -130 59 -130
373 0 c205 0 371 3 369 8 -2 4 -221 478 -487 1055 -266 576 -487 1047 -490
1047 -4 0 -167 -388 -362 -862z m252 -500 c98 -211 175 -387 172 -392 -6 -11
-637 0 -656 11 -10 6 24 100 142 391 85 210 157 380 160 378 2 -3 84 -177 182
-388z"/>
<path d="M595 3670 c-306 -65 -493 -288 -471 -562 20 -240 145 -402 561 -728
267 -209 386 -324 410 -398 24 -73 14 -123 -36 -177 -152 -165 -589 -129 -843
69 -88 69 -146 61 -146 -19 0 -71 202 -184 410 -228 131 -28 372 -29 484 -3
200 46 363 149 455 286 103 155 127 367 60 544 -55 148 -228 343 -534 600
-296 248 -345 305 -345 396 0 99 63 141 213 141 154 0 288 -39 398 -116 78
-54 125 -61 135 -19 11 42 -8 76 -59 111 -62 41 -192 91 -285 109 -104 20
-296 17 -407 -6z"/>
<path d="M7730 3665 c-9 -11 -12 -166 -14 -632 -2 -593 -3 -621 -23 -703 -32
-130 -71 -225 -126 -308 -94 -144 -199 -226 -368 -284 -91 -31 -99 -32 -254
-32 -88 0 -172 3 -187 7 l-28 7 0 975 0 975 -365 0 -366 0 3 -662 4 -663 26
-97 c50 -182 156 -348 290 -457 234 -189 628 -244 941 -130 268 96 465 330
539 637 19 81 21 127 27 712 8 691 9 670 -53 670 -18 0 -39 -7 -46 -15z"/>
<path d="M3870 2650 l0 -1020 365 0 365 0 0 971 0 972 183 -6 c207 -6 299 -24
424 -82 189 -87 304 -213 348 -382 19 -70 21 -230 5 -310 -42 -209 -225 -402
-436 -458 -41 -11 -101 -16 -194 -16 -148 1 -180 -9 -180 -54 0 -48 49 -72
125 -62 56 8 73 -7 110 -98 98 -243 199 -376 342 -453 107 -57 267 -67 341
-22 38 23 43 61 12 83 -18 12 -29 12 -83 0 -115 -27 -209 0 -302 88 -85 80
-155 201 -210 360 l-23 67 67 18 c36 9 107 38 156 63 74 36 106 61 180 135 73
73 99 108 133 176 188 379 34 787 -360 958 -170 73 -362 91 -975 92 l-393 0 0
-1020z"/>
<path d="M7503 633 c-18 -7 -16 -42 3 -50 8 -3 23 1 31 10 13 13 14 19 3 31
-13 17 -17 18 -37 9z"/>
<path d="M10226 623 c-3 -10 -13 -58 -22 -106 l-17 -88 -26 25 c-68 65 -173
59 -243 -15 -89 -93 -61 -254 49 -275 50 -9 112 1 145 26 l28 21 0 -26 c0 -20
5 -26 17 -23 14 2 25 43 58 208 23 113 44 220 48 238 6 27 4 32 -13 32 -10 0
-21 -8 -24 -17z m-134 -163 c76 -21 99 -100 57 -188 -47 -96 -189 -110 -234
-22 -18 34 -19 52 -4 102 14 51 46 86 94 103 49 17 43 17 87 5z"/>
<path d="M4784 593 c3 -10 23 -94 46 -188 62 -258 58 -247 83 -243 16 2 59 61
163 223 122 189 139 220 122 223 -11 2 -21 2 -22 0 -1 -2 -58 -90 -126 -195
-68 -106 -126 -193 -129 -193 -3 0 -27 87 -52 193 -42 174 -48 192 -69 195
-17 3 -21 0 -16 -15z"/>
<path d="M8735 598 c-5 -16 -85 -420 -85 -430 0 -5 9 -8 19 -8 16 0 22 15 37
95 l18 95 117 0 c97 0 118 3 123 16 3 9 6 18 6 20 0 2 -54 4 -119 4 l-119 0 8
38 c5 20 13 63 20 95 l11 57 135 0 c112 0 134 2 134 15 0 13 -23 15 -150 15
-112 0 -152 -3 -155 -12z"/>
<path d="M6526 554 c-3 -9 -6 -24 -6 -35 0 -15 -7 -19 -35 -19 -28 0 -35 -4
-35 -20 0 -15 7 -20 29 -20 l28 0 -18 -87 c-26 -124 -25 -178 3 -197 36 -26
118 -19 118 9 0 9 -11 12 -39 8 -33 -5 -41 -2 -54 18 -14 22 -13 34 7 134 l22
110 49 3 c80 5 87 42 8 42 l-46 0 6 35 c5 29 3 35 -13 35 -10 0 -21 -7 -24
-16z"/>
<path d="M5320 484 c-70 -30 -105 -79 -115 -160 -12 -95 52 -164 152 -164 62
0 136 31 127 54 -5 12 -13 11 -51 -6 -90 -40 -177 -6 -190 75 l-6 37 148 0
147 0 -4 55 c-5 61 -25 90 -75 111 -42 18 -89 17 -133 -2z m113 -27 c40 -17
55 -35 63 -75 l7 -32 -127 0 c-141 0 -147 4 -99 61 27 32 74 58 106 59 10 0
32 -6 50 -13z"/>
<path d="M5728 490 c-101 -30 -159 -161 -113 -250 38 -73 164 -88 239 -29 l26
20 0 -23 c-1 -43 -37 -106 -71 -124 -46 -23 -127 -22 -178 3 -35 18 -41 18
-46 4 -13 -34 78 -66 163 -58 68 7 111 33 139 83 22 39 96 368 85 379 -15 15
-32 1 -38 -30 -7 -40 -14 -43 -32 -14 -26 41 -108 59 -174 39z m135 -42 c27
-14 49 -74 41 -112 -17 -81 -74 -126 -159 -126 -144 0 -141 207 4 250 29 9 86
3 114 -12z"/>
<path d="M6160 484 c-55 -24 -89 -63 -106 -122 -35 -118 26 -202 146 -202 49
0 130 30 130 49 0 18 -14 18 -57 -1 -90 -40 -177 -6 -190 75 l-6 37 148 0 147
0 -4 55 c-5 61 -25 90 -75 111 -42 18 -89 17 -133 -2z m113 -27 c40 -17 55
-35 63 -75 l7 -32 -127 0 c-141 0 -147 4 -99 61 27 32 74 58 106 59 10 0 32
-6 50 -13z"/>
<path d="M6815 481 c-136 -61 -154 -270 -29 -311 51 -17 125 -8 164 20 l33 23
-5 -26 c-4 -21 -1 -27 13 -27 21 0 19 -7 58 188 25 123 26 144 14 149 -18 7
-33 -13 -33 -44 0 -29 -11 -29 -28 -2 -30 47 -118 62 -187 30z m151 -36 c54
-35 56 -140 3 -200 -74 -84 -207 -65 -225 32 -24 129 116 235 222 168z"/>
<path d="M7186 358 c-15 -79 -30 -155 -33 -170 -5 -23 -2 -28 14 -28 16 0 22
9 27 42 28 178 63 243 138 254 36 6 59 26 45 40 -10 10 -66 -7 -103 -32 l-36
-25 7 31 c5 25 3 30 -12 30 -16 0 -23 -20 -47 -142z"/>
<path d="M7475 488 c-2 -7 -16 -74 -30 -148 -15 -74 -29 -145 -32 -157 -4 -18
-1 -23 14 -23 18 0 24 18 52 158 36 181 36 182 16 182 -9 0 -17 -6 -20 -12z"/>
<path d="M7695 481 c-48 -22 -79 -54 -100 -103 -31 -76 -11 -162 47 -198 46
-29 140 -24 187 10 l34 23 -5 -26 c-4 -22 -1 -27 13 -27 11 0 19 2 19 3 0 2
14 71 30 152 34 168 36 185 16 185 -15 0 -26 -21 -26 -51 0 -25 -12 -24 -28 2
-30 47 -119 62 -187 30z m152 -37 c54 -33 52 -138 -3 -203 -75 -90 -224 -49
-224 60 0 126 126 206 227 143z"/>
<path d="M8061 343 c-36 -185 -36 -183 -13 -183 15 0 21 17 36 98 30 157 64
202 156 202 94 0 107 -31 79 -181 -12 -60 -19 -112 -16 -116 19 -18 35 16 55
120 21 106 21 119 8 152 -28 66 -140 85 -208 35 -35 -26 -40 -25 -32 5 5 20 2
25 -13 25 -18 0 -24 -18 -52 -157z"/>
<path d="M9175 487 c-53 -21 -83 -48 -105 -91 -23 -48 -26 -128 -7 -166 50
-99 225 -93 294 11 35 52 43 140 18 188 -30 58 -127 86 -200 58z m97 -27 c51
-15 78 -52 78 -107 0 -113 -93 -187 -194 -153 -48 15 -66 44 -66 103 0 82 37
136 109 157 35 11 32 11 73 0z"/>
<path d="M9588 490 c-44 -13 -87 -49 -108 -90 -28 -55 -27 -148 1 -184 67 -85
222 -71 286 26 35 52 42 131 17 183 -28 60 -116 89 -196 65z m94 -30 c52 -15
78 -52 78 -109 -1 -120 -122 -199 -217 -141 -57 35 -64 129 -14 199 13 17 23
31 24 31 1 0 20 7 42 15 49 17 42 17 87 5z"/>
<path d="M10580 360 c0 -7 695 -10 2065 -10 1370 0 2065 3 2065 10 0 7 -695
10 -2065 10 -1370 0 -2065 -3 -2065 -10z"/>
<path d="M240 335 c0 -13 236 -15 2065 -15 1829 0 2065 2 2065 15 0 13 -236
15 -2065 15 -1829 0 -2065 -2 -2065 -15z"/>
</g>
</svg>
