<?xml version="1.0" standalone="no"?>
<!DOCTYPE svg PUBLIC "-//W3C//DTD SVG 20010904//EN"
 "http://www.w3.org/TR/2001/REC-SVG-20010904/DTD/svg10.dtd">
<svg version="1.0" xmlns="http://www.w3.org/2000/svg"
 width="2000.000000pt" height="1500.000000pt" viewBox="0 0 2000.000000 1500.000000"
 preserveAspectRatio="xMidYMid meet">

<g transform="translate(0.000000,1500.000000) scale(0.100000,-0.100000)"
fill="#000000" stroke="none">
<path d="M0 7500 l0 -7500 10000 0 10000 0 0 7500 0 7500 -10000 0 -10000 0 0
-7500z m5642 818 c268 -579 490 -1061 494 -1070 6 -17 -16 -18 -373 -18 l-379
0 -60 130 -59 130 -384 -3 -384 -2 -44 -110 c-50 -124 -73 -155 -115 -155 -81
0 -88 48 -24 159 65 113 65 116 11 130 -75 19 -96 80 -39 118 19 12 38 14 83
9 l59 -7 49 118 c27 65 189 457 359 870 170 414 311 753 314 753 3 0 225 -474
492 -1052z m6073 427 l308 -596 134 263 c74 145 213 420 310 612 121 242 178
345 183 335 7 -12 740 -2119 740 -2126 0 -2 -176 -2 -392 -1 l-392 3 -175 542
c-97 299 -178 543 -181 543 -3 0 -126 -253 -274 -563 -148 -309 -272 -565
-275 -569 -4 -5 -137 224 -296 507 -159 283 -290 513 -292 511 -2 -2 -50 -147
-108 -322 -169 -519 -211 -637 -235 -656 -28 -23 -68 -23 -92 -1 -32 28 -22
78 42 214 43 92 141 370 361 1029 247 736 304 900 314 887 7 -9 150 -285 320
-612z m3110 -435 c270 -583 492 -1065 493 -1070 2 -6 -135 -10 -375 -10 l-380
0 -61 130 -61 130 -382 -2 -383 -3 -41 -102 c-22 -56 -51 -116 -64 -133 -20
-27 -27 -31 -64 -28 -32 2 -44 9 -56 29 -16 29 -20 17 63 169 20 36 36 68 36
71 0 4 -20 12 -44 18 -71 18 -96 71 -55 112 19 19 29 21 89 15 l67 -6 359 870
c197 479 360 870 363 870 3 0 227 -477 496 -1060z m1610 449 c424 -336 774
-613 778 -616 5 -3 7 250 6 562 -2 545 -2 568 16 581 29 21 63 17 92 -12 l26
-26 -6 -151 c-4 -82 -7 -553 -7 -1044 0 -558 -4 -893 -9 -891 -6 2 -351 271
-767 598 -417 327 -766 601 -776 608 -18 13 -18 -5 -18 -548 1 -516 0 -564
-16 -581 -17 -19 -69 -25 -90 -11 -26 17 -33 49 -24 113 6 36 10 497 10 1047
0 540 3 982 8 982 4 0 354 -275 777 -611z m-12785 521 c100 -28 253 -103 279
-136 25 -32 27 -76 5 -98 -25 -26 -67 -19 -115 18 -109 83 -247 127 -404 130
-85 1 -107 -2 -146 -22 -54 -26 -74 -59 -73 -116 2 -86 54 -145 349 -392 209
-176 389 -358 459 -463 27 -40 62 -110 77 -155 49 -140 38 -329 -27 -464 -79
-162 -255 -292 -473 -349 -173 -45 -457 -32 -633 28 -138 48 -266 127 -288
179 -24 58 15 111 72 96 13 -3 60 -32 106 -65 150 -108 323 -157 521 -148 136
6 204 25 261 75 76 64 89 130 44 220 -34 68 -135 162 -392 364 -311 244 -439
376 -510 523 -42 85 -56 156 -55 265 1 149 53 264 163 363 93 84 228 144 370
166 105 16 322 6 410 -19z m6764 1 c16 -18 17 -62 13 -643 -4 -583 -5 -629
-24 -713 -43 -191 -127 -349 -248 -470 -146 -146 -315 -222 -545 -245 -232
-24 -463 26 -632 136 -192 124 -313 302 -375 554 -14 56 -17 160 -20 723 l-4
657 375 0 376 0 0 -974 0 -974 87 -7 c282 -24 487 38 643 196 145 146 216 332
241 629 9 105 7 855 -3 1074 -2 30 3 43 21 57 30 24 73 24 95 0z m-2774 -29
c197 -42 331 -113 447 -236 130 -136 185 -273 185 -460 0 -217 -72 -380 -236
-533 -84 -78 -189 -139 -303 -173 l-72 -22 26 -71 c68 -191 180 -349 287 -405
42 -21 65 -26 126 -26 41 0 96 3 121 8 44 8 48 7 64 -18 52 -79 -90 -136 -253
-102 -99 20 -164 58 -248 141 -82 81 -136 169 -201 321 -25 60 -50 115 -56
123 -8 9 -24 11 -56 7 -60 -8 -119 9 -133 39 -13 30 -4 70 19 81 10 4 86 9
168 9 135 1 157 4 224 27 181 65 315 201 377 383 23 67 27 98 28 190 1 127
-13 192 -61 288 -51 103 -139 184 -266 247 -151 75 -226 91 -444 97 l-183 6 0
-972 0 -971 -372 2 -373 3 -3 1023 -2 1023 547 -4 c506 -4 555 -6 643 -25z
m2498 -3034 c2 -19 -2 -28 -18 -33 -37 -12 -64 27 -38 53 21 21 53 10 56 -20z
m2691 -160 c-22 -106 -44 -217 -50 -245 -9 -47 -13 -53 -36 -53 -22 0 -25 4
-21 25 l5 24 -30 -21 c-68 -48 -186 -29 -227 37 -26 42 -26 125 -1 181 47 103
202 144 277 73 13 -12 26 -21 28 -18 2 2 11 46 21 97 17 89 18 92 45 92 l27 0
-38 -192z m-5371 -5 c24 -98 46 -186 50 -195 5 -14 39 31 132 177 114 177 128
195 153 195 16 0 27 -4 25 -8 -1 -5 -68 -111 -148 -235 -193 -302 -178 -302
-252 1 -30 125 -53 230 -51 235 2 4 14 7 26 7 21 0 26 -14 65 -177z m4180 155
c-3 -22 -7 -23 -138 -28 l-134 -5 -17 -82 -16 -83 112 0 c61 0 114 -3 117 -6
3 -3 4 -14 1 -25 -5 -17 -15 -19 -123 -19 l-117 0 -19 -97 c-19 -94 -21 -98
-47 -101 -15 -2 -27 1 -27 5 0 5 20 110 45 233 25 123 45 225 45 227 0 2 72 3
161 3 l160 0 -3 -22z m-2481 -58 l-5 -40 49 0 c42 0 49 -3 49 -20 0 -18 -7
-20 -54 -20 l-53 0 -22 -116 c-26 -138 -22 -150 46 -140 38 5 43 3 43 -14 0
-42 -88 -55 -134 -19 -32 25 -33 52 -6 184 11 53 20 99 20 101 0 2 -14 4 -31
4 -44 0 -37 34 9 38 29 3 33 7 38 43 6 33 10 39 32 39 23 0 24 -3 19 -40z
m-1094 -57 c41 -20 67 -70 67 -125 l0 -48 -145 0 -145 0 0 -26 c0 -15 12 -38
29 -55 24 -24 38 -29 78 -29 29 0 63 8 85 20 37 19 38 19 48 1 11 -22 1 -33
-53 -56 -78 -32 -184 -6 -220 54 -23 40 -23 131 2 179 49 96 159 133 254 85z
m362 16 c24 -6 51 -20 61 -30 23 -26 34 -24 34 6 0 20 5 25 25 25 14 0 25 -6
25 -13 0 -30 -61 -315 -76 -355 -20 -53 -65 -88 -132 -102 -61 -14 -143 0
-182 30 -23 18 -24 20 -9 35 15 16 19 16 48 1 73 -38 175 -26 212 24 11 14 22
40 25 58 l7 33 -34 -20 c-24 -15 -51 -21 -89 -21 -107 0 -166 59 -156 159 8
89 62 150 151 172 43 10 42 10 90 -2z m478 -16 c41 -20 67 -70 67 -125 l0 -48
-145 0 -145 0 0 -26 c0 -15 12 -38 29 -55 24 -24 38 -29 78 -29 29 0 63 8 85
20 37 19 38 19 48 1 11 -22 1 -33 -53 -56 -78 -32 -184 -6 -220 54 -23 40 -23
131 2 179 49 96 159 133 254 85z m620 18 c22 -5 49 -19 61 -30 24 -23 36 -19
36 11 0 13 7 18 25 18 32 0 32 0 -6 -192 -30 -150 -33 -158 -55 -158 -17 0
-24 6 -24 20 0 19 0 19 -42 0 -53 -24 -109 -25 -155 -4 -127 61 -90 283 55
328 57 18 58 18 105 7z m449 -26 c-3 -21 -10 -25 -37 -25 -37 0 -79 -29 -99
-68 -8 -15 -21 -65 -31 -112 -9 -47 -19 -93 -21 -102 -6 -21 -54 -25 -54 -5 1
6 16 84 33 172 33 159 33 160 61 163 25 3 27 1 21 -18 -7 -21 -6 -21 20 -4 25
16 93 34 106 27 4 -1 4 -14 1 -28z m441 21 c21 -8 47 -22 57 -31 18 -16 19
-16 26 9 4 19 13 26 30 26 30 0 30 0 -9 -190 -29 -142 -34 -155 -54 -158 -17
-3 -23 2 -23 17 0 20 0 20 -42 1 -148 -67 -269 38 -224 193 18 61 75 122 123
133 16 3 33 7 38 9 19 7 40 4 78 -9z m480 4 c10 0 32 -13 48 -29 36 -36 38
-77 9 -216 -11 -53 -20 -99 -20 -101 0 -2 -11 -4 -25 -4 -30 0 -30 -1 -4 133
17 85 20 113 11 133 -32 68 -169 46 -200 -33 -6 -16 -18 -66 -27 -113 -9 -47
-19 -93 -21 -102 -6 -21 -54 -25 -54 -5 1 6 16 84 33 172 32 156 33 160 59
163 23 3 26 0 21 -19 -6 -21 -6 -21 21 -4 32 21 84 35 111 29 11 -2 28 -4 38
-4z m1033 -21 c102 -62 75 -242 -45 -306 -115 -60 -251 5 -251 122 0 78 35
146 93 180 63 38 145 39 203 4z m411 -1 c64 -38 79 -139 33 -229 -54 -105
-215 -132 -295 -49 -40 42 -47 129 -15 195 48 100 182 140 277 83z m-2227 10
c-1 -7 -16 -85 -33 -173 -32 -157 -33 -160 -60 -163 -15 -2 -27 -1 -27 1 0 5
58 295 65 325 4 15 13 22 30 22 14 0 25 -6 25 -12z m7200 -128 c0 -20 -5 -20
-2072 -18 -1965 3 -2073 4 -2076 21 -3 16 101 17 2072 17 2070 0 2076 0 2076
-20z m-10340 -25 c0 -13 -237 -15 -2075 -15 -1838 0 -2075 2 -2075 15 0 13
237 15 2075 15 1838 0 2075 -2 2075 -15z"/>
<path d="M4703 7988 l-151 -373 66 -6 c37 -4 186 -7 331 -8 207 -1 262 2 258
12 -17 43 -340 733 -346 740 -4 4 -75 -161 -158 -365z"/>
<path d="M13883 7992 c-83 -207 -150 -379 -147 -381 3 -3 151 -7 331 -9 274
-4 325 -2 320 9 -8 20 -349 754 -351 756 0 0 -69 -168 -153 -375z"/>
<path d="M12605 6063 c-36 -10 -66 -36 -86 -74 -46 -91 -6 -179 83 -179 89 0
148 61 148 152 0 62 -29 98 -85 103 -22 2 -49 1 -60 -2z"/>
<path d="M7911 6048 c-19 -13 -43 -38 -54 -56 l-19 -32 121 0 121 0 0 24 c0
71 -103 110 -169 64z"/>
<path d="M8315 6050 c-51 -25 -77 -68 -78 -127 -1 -71 41 -100 133 -93 115 9
166 184 65 225 -46 20 -72 19 -120 -5z"/>
<path d="M8751 6048 c-19 -13 -43 -38 -54 -56 l-19 -32 121 0 121 0 0 24 c0
71 -103 110 -169 64z"/>
<path d="M9421 6052 c-50 -25 -74 -63 -79 -126 -4 -51 -2 -57 27 -87 30 -29
36 -31 87 -27 82 7 134 66 134 153 0 49 -15 74 -55 91 -45 18 -73 18 -114 -4z"/>
<path d="M10300 6052 c-51 -25 -80 -74 -80 -136 0 -28 6 -58 13 -67 52 -68
177 -44 219 41 59 117 -38 220 -152 162z"/>
<path d="M11765 6051 c-69 -36 -103 -127 -71 -190 41 -78 177 -65 222 21 10
18 18 55 18 81 0 38 -5 53 -26 73 -35 35 -91 41 -143 15z"/>
<path d="M12174 6051 c-82 -37 -111 -166 -49 -218 31 -27 100 -31 145 -8 88
45 97 204 14 235 -37 14 -64 12 -110 -9z"/>
</g>
</svg>
